<svg width="128" height="128" viewBox="0 0 128 128" fill="none" xmlns="http://www.w3.org/2000/svg">
<path d="M126 95.9832H114C112.895 95.9832 112 96.6995 112 97.5832V102.383C112 103.267 112.895 103.983 114 103.983H126C127.105 103.983 128 103.267 128 102.383V97.5832C128 96.6995 127.105 95.9832 126 95.9832Z" fill="#B3B3B3"/>
<path d="M126 59.9832H114C112.895 59.9832 112 60.6995 112 61.5832V66.3832C112 67.2668 112.895 67.9832 114 67.9832H126C127.105 67.9832 128 67.2668 128 66.3832V61.5832C128 60.6995 127.105 59.9832 126 59.9832Z" fill="#B3B3B3"/>
<path d="M126 41.9832H114C112.895 41.9832 112 42.6995 112 43.5832V48.3832C112 49.2668 112.895 49.9832 114 49.9832H126C127.105 49.9832 128 49.2668 128 48.3832V43.5832C128 42.6995 127.105 41.9832 126 41.9832Z" fill="#B3B3B3"/>
<path d="M126 23.9832H114C112.895 23.9832 112 24.6995 112 25.5832V30.3832C112 31.2668 112.895 31.9832 114 31.9832H126C127.105 31.9832 128 31.2668 128 30.3832V25.5832C128 24.6995 127.105 23.9832 126 23.9832Z" fill="#B3B3B3"/>
<path d="M126 77.9832H114C112.895 77.9832 112 78.6995 112 79.5832V84.3832C112 85.2668 112.895 85.9832 114 85.9832H126C127.105 85.9832 128 85.2668 128 84.3832V79.5832C128 78.6995 127.105 77.9832 126 77.9832Z" fill="#B3B3B3"/>
<path d="M32.02 125.999V113.999C32.02 112.895 31.3037 111.999 30.42 111.999H25.62C24.7364 111.999 24.02 112.895 24.02 113.999V125.999C24.02 127.104 24.7364 127.999 25.62 127.999H30.42C31.3037 127.999 32.02 127.104 32.02 125.999Z" fill="#B3B3B3"/>
<path d="M68.02 125.999V113.999C68.02 112.895 67.3037 111.999 66.42 111.999H61.62C60.7364 111.999 60.02 112.895 60.02 113.999V125.999C60.02 127.104 60.7364 127.999 61.62 127.999H66.42C67.3037 127.999 68.02 127.104 68.02 125.999Z" fill="#B3B3B3"/>
<path d="M86.02 125.999V113.999C86.02 112.895 85.3037 111.999 84.42 111.999H79.62C78.7364 111.999 78.02 112.895 78.02 113.999V125.999C78.02 127.104 78.7364 127.999 79.62 127.999H84.42C85.3037 127.999 86.02 127.104 86.02 125.999Z" fill="#B3B3B3"/>
<path d="M104.02 125.999V113.999C104.02 112.895 103.304 111.999 102.42 111.999H97.62C96.7364 111.999 96.02 112.895 96.02 113.999V125.999C96.02 127.104 96.7364 127.999 97.62 127.999H102.42C103.304 127.999 104.02 127.104 104.02 125.999Z" fill="#B3B3B3"/>
<path d="M50.02 125.999V113.999C50.02 112.895 49.3037 111.999 48.42 111.999H43.62C42.7364 111.999 42.02 112.895 42.02 113.999V125.999C42.02 127.104 42.7364 127.999 43.62 127.999H48.42C49.3037 127.999 50.02 127.104 50.02 125.999Z" fill="#B3B3B3"/>
<path d="M14 95.9832H2C0.89543 95.9832 0 96.6995 0 97.5832V102.383C0 103.267 0.89543 103.983 2 103.983H14C15.1046 103.983 16 103.267 16 102.383V97.5832C16 96.6995 15.1046 95.9832 14 95.9832Z" fill="#B3B3B3"/>
<path d="M14 59.9832H2C0.89543 59.9832 0 60.6995 0 61.5832V66.3832C0 67.2668 0.89543 67.9832 2 67.9832H14C15.1046 67.9832 16 67.2668 16 66.3832V61.5832C16 60.6995 15.1046 59.9832 14 59.9832Z" fill="#B3B3B3"/>
<path d="M14 41.9832H2C0.89543 41.9832 0 42.6995 0 43.5832V48.3832C0 49.2668 0.89543 49.9832 2 49.9832H14C15.1046 49.9832 16 49.2668 16 48.3832V43.5832C16 42.6995 15.1046 41.9832 14 41.9832Z" fill="#B3B3B3"/>
<path d="M14 23.9832H2C0.89543 23.9832 0 24.6995 0 25.5832V30.3832C0 31.2668 0.89543 31.9832 2 31.9832H14C15.1046 31.9832 16 31.2668 16 30.3832V25.5832C16 24.6995 15.1046 23.9832 14 23.9832Z" fill="#B3B3B3"/>
<path d="M14 77.9832H2C0.89543 77.9832 0 78.6995 0 79.5832V84.3832C0 85.2668 0.89543 85.9832 2 85.9832H14C15.1046 85.9832 16 85.2668 16 84.3832V79.5832C16 78.6995 15.1046 77.9832 14 77.9832Z" fill="#B3B3B3"/>
<path d="M32.02 14V2C32.02 0.89543 31.3037 0 30.42 0H25.62C24.7364 0 24.02 0.89543 24.02 2V14C24.02 15.1046 24.7364 16 25.62 16H30.42C31.3037 16 32.02 15.1046 32.02 14Z" fill="#B3B3B3"/>
<path d="M68.02 14V2C68.02 0.89543 67.3037 0 66.42 0H61.62C60.7364 0 60.02 0.89543 60.02 2V14C60.02 15.1046 60.7364 16 61.62 16H66.42C67.3037 16 68.02 15.1046 68.02 14Z" fill="#B3B3B3"/>
<path d="M86.02 14V2C86.02 0.89543 85.3037 0 84.42 0H79.62C78.7364 0 78.02 0.89543 78.02 2V14C78.02 15.1046 78.7364 16 79.62 16H84.42C85.3037 16 86.02 15.1046 86.02 14Z" fill="#B3B3B3"/>
<path d="M104.02 14V2C104.02 0.89543 103.304 0 102.42 0H97.62C96.7364 0 96.02 0.89543 96.02 2V14C96.02 15.1046 96.7364 16 97.62 16H102.42C103.304 16 104.02 15.1046 104.02 14Z" fill="#B3B3B3"/>
<path d="M50.02 14V2C50.02 0.89543 49.3037 0 48.42 0H43.62C42.7364 0 42.02 0.89543 42.02 2V14C42.02 15.1046 42.7364 16 43.62 16H48.42C49.3037 16 50.02 15.1046 50.02 14Z" fill="#B3B3B3"/>
<path d="M110.2 13.1833H17.8C15.7013 13.1833 14 14.5444 14 16.2233V110.943C14 112.622 15.7013 113.983 17.8 113.983H110.2C112.299 113.983 114 112.622 114 110.943V16.2233C114 14.5444 112.299 13.1833 110.2 13.1833Z" fill="#A10B0E"/>
<path d="M23 26.0632C24.6569 26.0632 26 24.7021 26 23.0232C26 21.3442 24.6569 19.9832 23 19.9832C21.3431 19.9832 20 21.3442 20 23.0232C20 24.7021 21.3431 26.0632 23 26.0632Z" fill="white"/>
<path d="M44 92.1193C44 82.7113 44 73.1913 44 63.5593C44 53.9273 44 44.4073 44 34.9993C47.36 34.9993 50.72 34.9993 54.08 34.9993C57.496 34.9993 60.884 34.9993 64.244 34.9993C68.5 34.9993 72.224 35.8113 75.416 37.4353C78.608 39.0033 81.072 41.2433 82.808 44.1553C84.6 47.0113 85.496 50.3713 85.496 54.2353C85.496 57.5393 84.824 60.4793 83.48 63.0553C82.136 65.6313 80.316 67.7313 78.02 69.3553C80.26 73.1073 82.5 76.9153 84.74 80.7793C87.036 84.5873 89.304 88.3673 91.544 92.1193C88.8 92.1193 86.056 92.1193 83.312 92.1193C80.568 92.1193 77.824 92.1193 75.08 92.1193C73.344 88.9833 71.58 85.7913 69.788 82.5433C68.052 79.2953 66.288 76.1033 64.496 72.9673C63.544 72.9673 62.564 72.9673 61.556 72.9673C60.604 72.9673 59.652 72.9673 58.7 72.9673C58.7 76.1033 58.7 79.2953 58.7 82.5433C58.7 85.7913 58.7 88.9833 58.7 92.1193C56.292 92.1193 53.856 92.1193 51.392 92.1193C48.928 92.1193 46.464 92.1193 44 92.1193ZM64.244 48.2713C63.348 48.2713 62.424 48.2713 61.472 48.2713C60.576 48.2713 59.652 48.2713 58.7 48.2713C58.7 50.3433 58.7 52.4153 58.7 54.4873C58.7 56.5593 58.7 58.6313 58.7 60.7033C59.764 60.7033 60.828 60.7033 61.892 60.7033C62.956 60.7033 64.02 60.7033 65.084 60.7033C66.764 60.7033 68.136 60.1153 69.2 58.9393C70.264 57.7073 70.796 56.2233 70.796 54.4873C70.796 52.6953 70.208 51.2113 69.032 50.0353C67.912 48.8593 66.316 48.2713 64.244 48.2713Z" fill="white"/>
</svg>
